<?xml version="1.0" encoding="UTF-8"?>
<svg version="1.1" xmlns="http://www.w3.org/2000/svg" width="74" height="74">
<path d="M0 0 C24.42 0 48.84 0 74 0 C74 24.42 74 48.84 74 74 C49.58 74 25.16 74 0 74 C0 49.58 0 25.16 0 0 Z " fill="#1A2130" transform="translate(0,0)"/>
<path d="M0 0 C11.55 0 23.1 0 35 0 C32.62416505 2.37583495 30.70237332 3.00438878 27.5546875 4.1640625 C26.47832031 4.56367187 25.40195312 4.96328125 24.29296875 5.375 C23.16503906 5.7875 22.03710938 6.2 20.875 6.625 C19.73933594 7.04523437 18.60367187 7.46546875 17.43359375 7.8984375 C14.62417043 8.93721587 11.8129574 9.97083839 9 11 C8.92506964 14.96516109 8.87103551 18.93004014 8.83520508 22.89575195 C8.81294542 24.89744576 8.77479854 26.89894275 8.73632812 28.90039062 C8.64342279 41.19486364 10.8938567 49.59081311 19 59 C22.15769379 61.94481555 25.46846032 64.52052931 29 67 C29.66644531 67.47953125 30.33289063 67.9590625 31.01953125 68.453125 C32.96900521 69.80013467 32.96900521 69.80013467 36 71 C42.65120245 68.96172828 48.64007027 64.58704742 53.4375 59.625 C54.283125 58.75875 55.12875 57.8925 56 57 C56.66 57 57.32 57 58 57 C58.2475 56.319375 58.495 55.63875 58.75 54.9375 C59.98089789 52.04488995 61.4360807 49.50227088 63.09765625 46.84375 C65.22658377 42.49373359 65.11860843 37.92411297 65.09765625 33.16796875 C65.09443359 31.87568359 65.09121094 30.58339844 65.08789062 29.25195312 C65.07953665 27.89713474 65.07107172 26.54231703 65.0625 25.1875 C65.05748 23.81315265 65.05291797 22.43880355 65.04882812 21.06445312 C65.03705677 17.70961659 65.01912174 14.3548027 65 11 C56.42 7.7 47.84 4.4 39 1 C39 0.67 39 0.34 39 0 C50.55 0 62.1 0 74 0 C74 24.42 74 48.84 74 74 C49.58 74 25.16 74 0 74 C0 49.58 0 25.16 0 0 Z " fill="#1B2230" transform="translate(0,0)"/>
<path d="M0 0 C1.05896484 0.39832031 2.11792969 0.79664063 3.20898438 1.20703125 C4.29888672 1.62339844 5.38878906 2.03976563 6.51171875 2.46875 C7.62095703 2.88511719 8.73019531 3.30148438 9.87304688 3.73046875 C18.05878618 6.82831743 18.05878618 6.82831743 19.19921875 7.96875 C19.44322006 11.95558345 19.42783516 15.94626649 19.43945312 19.93994141 C19.44904542 21.93273969 19.48018448 23.92539689 19.51171875 25.91796875 C19.55814494 37.39684383 17.66979297 47.28152709 9.44921875 55.77734375 C-4.72192624 68.60565847 -4.72192624 68.60565847 -10.80078125 68.96875 C-22.92191689 63.33767124 -32.2168732 54.01736112 -37.80078125 41.96875 C-38.82025613 37.98592657 -38.91650744 34.23859622 -38.8984375 30.13671875 C-38.89521484 28.84443359 -38.89199219 27.55214844 -38.88867188 26.22070312 C-38.8803179 24.86588474 -38.87185297 23.51106703 -38.86328125 22.15625 C-38.85826125 20.78190265 -38.85369922 19.40755355 -38.84960938 18.03320312 C-38.83783793 14.67834076 -38.82139408 11.32356779 -38.80078125 7.96875 C-33.04077031 4.9828133 -27.24832344 2.43586306 -21.17578125 0.15625 C-20.3559375 -0.16794922 -19.53609375 -0.49214844 -18.69140625 -0.82617188 C-17.48871094 -1.27766602 -17.48871094 -1.27766602 -16.26171875 -1.73828125 C-15.19123291 -2.14784058 -15.19123291 -2.14784058 -14.09912109 -2.56567383 C-9.15325241 -3.56756161 -4.59533595 -1.73544616 0 0 Z M-23.67578125 6.96875 C-25.13757813 7.54109375 -25.13757813 7.54109375 -26.62890625 8.125 C-29.02323557 9.06395267 -31.41349815 10.01205568 -33.80078125 10.96875 C-33.88855931 15.13528186 -33.94143397 19.30157276 -33.98828125 23.46875 C-34.01341797 24.64179688 -34.03855469 25.81484375 -34.06445312 27.0234375 C-34.1594358 38.29471523 -31.97625843 44.37809332 -24.140625 52.6328125 C-17.51358715 59.72832179 -17.51358715 59.72832179 -8.80078125 62.96875 C0.49149874 58.8603985 8.9117598 50.07960028 13.19921875 40.96875 C14.29345752 37.58101949 14.31426458 34.43809865 14.296875 30.890625 C14.29365234 29.73046875 14.29042969 28.5703125 14.28710938 27.375 C14.27873047 26.1684375 14.27035156 24.961875 14.26171875 23.71875 C14.25720703 22.49671875 14.25269531 21.2746875 14.24804688 20.015625 C14.2362669 16.99995054 14.21981728 13.98437502 14.19921875 10.96875 C10.8306314 9.61880186 7.4534393 8.29183106 4.07421875 6.96875 C3.12289062 6.5871875 2.1715625 6.205625 1.19140625 5.8125 C-8.68818436 1.97043698 -13.98854942 3.0833562 -23.67578125 6.96875 Z " fill="#EFB624" transform="translate(46.80078125,3.03125)"/>
<path d="M0 0 C-0.27997244 5.49575528 -3.60268104 8.23365761 -7.3125 11.875 C-7.89451172 12.48085938 -8.47652344 13.08671875 -9.07617188 13.7109375 C-9.64529297 14.278125 -10.21441406 14.8453125 -10.80078125 15.4296875 C-11.31809814 15.94772949 -11.83541504 16.46577148 -12.3684082 16.99951172 C-14 18 -14 18 -16.09130859 17.73779297 C-19.51221399 16.41546295 -21.93097277 13.99257225 -24 11 C-23.875 8.125 -23.875 8.125 -23 6 C-20.04049858 7.37405423 -17.58504604 9.01776932 -15 11 C-14.25234375 10.2059375 -13.5046875 9.411875 -12.734375 8.59375 C-11.74012331 7.56197938 -10.74530171 6.53075775 -9.75 5.5 C-9.01330078 4.71302734 -9.01330078 4.71302734 -8.26171875 3.91015625 C-4.453125 0 -4.453125 0 0 0 Z " fill="#F1B824" transform="translate(49,27)"/>
</svg>
